<?xml version="1.0" encoding="UTF-8" standalone="no"?>
<svg
   xmlns:ns="&amp;#38;#38;ns_sfw;"
   xmlns:dc="http://purl.org/dc/elements/1.1/"
   xmlns:cc="http://creativecommons.org/ns#"
   xmlns:rdf="http://www.w3.org/1999/02/22-rdf-syntax-ns#"
   xmlns:svg="http://www.w3.org/2000/svg"
   xmlns="http://www.w3.org/2000/svg"
   xmlns:sodipodi="http://sodipodi.sourceforge.net/DTD/sodipodi-0.dtd"
   xmlns:inkscape="http://www.inkscape.org/namespaces/inkscape"
   xml:space="preserve"
   enable-background="new 0 0 353.746 353.777"
   viewBox="0 0 320 319.99999"
   height="320"
   width="320"
   y="0px"
   x="0px"
   id="Layer_1"
   version="1.1"
   inkscape:version="0.91 r13725"
   sodipodi:docname="sixsided.svg"><sodipodi:namedview
     pagecolor="#ffffff"
     bordercolor="#666666"
     borderopacity="1"
     objecttolerance="10"
     gridtolerance="10"
     guidetolerance="10"
     inkscape:pageopacity="0"
     inkscape:pageshadow="2"
     inkscape:window-width="1920"
     inkscape:window-height="1057"
     id="namedview9"
     showgrid="false"
     inkscape:zoom="0.7375"
     inkscape:cx="-7.4576271"
     inkscape:cy="160"
     inkscape:window-x="-8"
     inkscape:window-y="-8"
     inkscape:window-maximized="1"
     inkscape:current-layer="Layer_1" /><defs
     id="defs205" /><metadata
     id="metadata3"><ns:sfw><ns:slices /><ns:sliceSourceBounds
         bottomLeftOrigin="true"
         width="491.91"
         x="-63.62"
         y="438.33"
         height="355.67" /></ns:sfw><rdf:RDF><cc:Work
         rdf:about=""><dc:format>image/svg+xml</dc:format><dc:type
           rdf:resource="http://purl.org/dc/dcmitype/StillImage" /><dc:title /></cc:Work></rdf:RDF></metadata><path
     style="fill:#000000;fill-opacity:1;fill-rule:evenodd;stroke:none"
     d="M 160.47656 8.5175781 A 20.386169 20.386169 0 0 0 149.8125 11.240234 L 36.160156 76.826172 A 20.386169 20.386169 0 0 0 25.962891 94.482422 L 25.962891 225.58594 A 20.386169 20.386169 0 0 0 36.167969 243.24609 L 149.82031 308.76367 A 20.386169 20.386169 0 0 0 180.38477 291.10352 L 180.38477 171.77734 L 283.83203 112.14258 A 20.386169 20.386169 0 0 0 283.83984 76.826172 L 170.1875 11.240234 A 20.386169 20.386169 0 0 0 160.47656 8.5175781 z "
     id="path3356" /><g
     id="g3337"
     transform="matrix(2.0534312,0,0,2.0534312,-18.994446,-164.35444)"><path
       id="path3538"
       d="M 142.51625,126.05096 87.168418,94.110843 31.820679,126.05096 87.168418,157.95704 Z"
       style="fill:#9fa5a3;fill-opacity:1;fill-rule:evenodd;stroke:none"
       inkscape:connector-curvature="0" /><path
       id="path3540"
       d="m 31.820679,126.05096 0,63.84591 55.347739,31.90688 0,-63.84671 z"
       style="fill:#e7f0f5;fill-opacity:1;fill-rule:evenodd;stroke:none"
       inkscape:connector-curvature="0" /></g></svg>